# xmcd
#
# Track frame offsets: 
#        150
#        19042
#        35153
#        54112
#        75530
#        92173
#        112886
#        129141
#        145666
#        162466
#        182586
#        201977
#
# Disc length: 2791 seconds
#
# Revision: 0
# Processed by: cddbd v1.5.2PL0 Copyright (c) Steve Scherf et al.
# Submitted via: ExactAudioCopy v0.99pb4
#
DISCID=930ae50c
DTITLE=Jason Eady and The Wayward Apostles - Wild Eyed Serenade
DYEAR=2007
DGENRE=Country
TTITLE0=Wild-Eyed Serenade
TTITLE1=Confidently Wrong
TTITLE2=Back To Jackson
TTITLE3=Redemption
TTITLE4=Before I Was Dead
TTITLE5=Rise
TTITLE6=I Will
TTITLE7=I'll Be Home Tomorrow
TTITLE8=Unsteady Ground
TTITLE9=Forgive Me
TTITLE10=Waiting To Shine
TTITLE11=Walking In Jerusalem
EXTD=
EXTT0=
EXTT1=
EXTT2=
EXTT3=
EXTT4=
EXTT5=
EXTT6=
EXTT7=
EXTT8=
EXTT9=
EXTT10=
EXTT11=
PLAYORDER=
